<svg width="161" height="40" viewBox="0 0 161 40" fill="none" xmlns="http://www.w3.org/2000/svg">
<g clip-path="url(#clip0_3_9)">
<path d="M160.945 20.9283H57.8748V21.4566H160.945V20.9283Z" fill="#5A5A5A"/>
<mask id="mask0_3_9" style="mask-type:luminance" maskUnits="userSpaceOnUse" x="15" y="0" width="16" height="21">
<path d="M23.6457 1.61585L15.2505 13.4395L19.9294 20.0117L29.9263 5.93513C31.1414 4.22606 30.7153 1.87998 28.9874 0.683628C28.3167 0.225286 27.5513 0 26.7939 0C25.5867 0 24.3953 0.559332 23.6536 1.60808" fill="white"/>
</mask>
<g mask="url(#mask0_3_9)">
<path d="M31.1335 0.00778198H15.2505V20.0117H31.1335V0.00778198Z" fill="url(#paint0_linear_3_9)"/>
</g>
<mask id="mask1_3_9" style="mask-type:luminance" maskUnits="userSpaceOnUse" x="0" y="19" width="16" height="21">
<path d="M0.693011 34.0649C-0.522083 35.7739 -0.0960111 38.1278 1.63195 39.3164C2.30262 39.7747 3.06797 40 3.82543 40C5.03263 40 6.22406 39.4407 6.96574 38.3919L15.5345 26.2653L10.8635 19.6931L0.693011 34.0649Z" fill="white"/>
</mask>
<g mask="url(#mask1_3_9)">
<path d="M15.5345 19.6854H-0.522095V40H15.5345V19.6854Z" fill="url(#paint1_linear_3_9)"/>
</g>
<mask id="mask2_3_9" style="mask-type:luminance" maskUnits="userSpaceOnUse" x="38" y="20" width="16" height="21">
<path d="M38.3373 26.5916L46.7246 38.3997C47.4742 39.4484 48.6577 40.0078 49.8649 40.0078C50.6224 40.0078 51.3877 39.7825 52.0584 39.3241C53.7942 38.1278 54.2124 35.7817 52.9973 34.0726L42.9688 20.0272L38.3373 26.5838V26.5916Z" fill="white"/>
</mask>
<g mask="url(#mask2_3_9)">
<path d="M54.2124 20.035H38.3373V40.0078H54.2124V20.035Z" fill="url(#paint2_linear_3_9)"/>
</g>
<mask id="mask3_3_9" style="mask-type:luminance" maskUnits="userSpaceOnUse" x="18" y="0" width="21" height="20">
<path d="M26.5887 0.0155505C26.5335 0.0155505 26.4783 0.0155505 26.4309 0.023319C26.3599 0.023319 26.2889 0.038856 26.21 0.0466245C26.1627 0.054393 26.1153 0.0621615 26.068 0.06993C25.997 0.085467 25.9181 0.101004 25.847 0.116541C25.7997 0.124309 25.7524 0.139846 25.705 0.155383C25.634 0.17092 25.5709 0.201994 25.4999 0.2253C25.4446 0.240837 25.3973 0.264142 25.3421 0.279679C25.2868 0.302985 25.2237 0.334059 25.1685 0.357364C25.1133 0.388438 25.0501 0.411744 24.987 0.442818C24.9397 0.466123 24.8923 0.489429 24.845 0.520503C24.7819 0.559345 24.7109 0.598188 24.6477 0.644799C24.6241 0.660336 24.6083 0.668104 24.5846 0.683641C24.5688 0.699178 24.5452 0.714715 24.5294 0.722484C24.4663 0.769095 24.4031 0.815706 24.34 0.862317C24.3006 0.893391 24.2611 0.932233 24.2217 0.963307C24.1743 1.00992 24.1191 1.05653 24.0796 1.10314C24.0323 1.14975 23.985 1.19636 23.9376 1.24297C23.8982 1.28182 23.8666 1.32066 23.835 1.36727C23.7877 1.42942 23.7404 1.4838 23.693 1.54594C23.6772 1.56148 23.6615 1.57702 23.6457 1.60032L18.2567 9.19015C19.2035 8.1414 20.5843 7.48108 22.1229 7.48108C24.1743 7.48108 25.9417 8.65412 26.7781 10.3554L26.7939 10.3321L33.6347 19.9573L38.2978 13.4395L29.9263 1.60032C29.9263 1.60032 29.8947 1.56925 29.8868 1.54594C29.8395 1.4838 29.7922 1.42165 29.7369 1.3595C29.7054 1.32066 29.6659 1.28182 29.6344 1.24297C29.587 1.18859 29.5397 1.14198 29.4923 1.09537C29.445 1.04876 29.3976 1.00992 29.3503 0.963307C29.3109 0.924465 29.2635 0.893391 29.2241 0.854548C29.1688 0.807937 29.1057 0.761326 29.0426 0.714715C29.0189 0.699178 29.0031 0.683641 28.9874 0.668104C28.9637 0.652567 28.94 0.63703 28.9242 0.629262C28.8611 0.590419 28.7901 0.543808 28.727 0.512734C28.6796 0.48166 28.6323 0.458355 28.585 0.435049C28.5218 0.403975 28.4666 0.372901 28.4035 0.349596C28.3482 0.318522 28.2851 0.295216 28.2299 0.271911C28.1747 0.248605 28.1194 0.233068 28.0721 0.209763C28.0011 0.186457 27.938 0.163152 27.8748 0.147615C27.8275 0.132078 27.7802 0.124309 27.7249 0.108772C27.6539 0.0932355 27.5829 0.0776985 27.5119 0.0621615C27.4645 0.054393 27.4093 0.0466245 27.362 0.038856C27.291 0.0310875 27.2278 0.0155505 27.1568 0.0155505C27.1016 0.0155505 27.0464 0.0155505 26.9832 0.00778198C26.9201 0.00778198 26.857 0.00778198 26.7939 0.00778198C26.7308 0.00778198 26.6597 0.00778198 26.5966 0.00778198" fill="white"/>
</mask>
<g mask="url(#mask3_3_9)">
<path d="M38.2978 0.00778198H18.2567V19.9728H38.2978V0.00778198Z" fill="url(#paint3_linear_3_9)"/>
</g>
<mask id="mask4_3_9" style="mask-type:luminance" maskUnits="userSpaceOnUse" x="6" y="13" width="21" height="20">
<path d="M10.5795 20.0194L6.51599 25.7603C7.48649 24.6106 8.94618 23.8804 10.5795 23.8804C12.5915 23.8804 14.3431 24.9913 15.2347 26.6226L15.2584 26.5916L18.3592 30.9497C19.2114 31.9518 22.5805 33.824 25.6577 31.1206C26.1232 30.7166 26.4388 30.2738 26.786 29.6135L26.7702 29.6291L15.2505 13.4317L10.5795 20.0039V20.0194Z" fill="white"/>
</mask>
<g mask="url(#mask4_3_9)">
<path d="M26.786 13.4395H6.51599V33.8241H26.786V13.4395Z" fill="url(#paint4_linear_3_9)"/>
</g>
<mask id="mask5_3_9" style="mask-type:luminance" maskUnits="userSpaceOnUse" x="18" y="13" width="25" height="27">
<path d="M26.7623 29.6368C25.918 31.3381 24.1585 32.5112 22.1071 32.5112C20.5685 32.5112 19.1956 31.8508 18.2408 30.8021L23.6299 38.3919C23.6299 38.3919 23.6614 38.4308 23.6772 38.4463C23.7245 38.5084 23.7719 38.5706 23.8271 38.625C23.8587 38.6638 23.8981 38.7104 23.9297 38.7493C23.977 38.7959 24.0244 38.8425 24.0717 38.8891C24.1191 38.9357 24.1664 38.9823 24.2137 39.0289C24.2532 39.0678 24.2926 39.0988 24.34 39.1299C24.4031 39.1765 24.4583 39.2309 24.5215 39.2698C24.5451 39.2853 24.5609 39.3008 24.5767 39.3086C24.6004 39.3241 24.6161 39.3319 24.6398 39.3474C24.7029 39.394 24.7739 39.4329 24.845 39.4717C24.8923 39.5028 24.9318 39.5261 24.9791 39.5494C25.0422 39.5805 25.0974 39.6116 25.1606 39.6426C25.2158 39.6659 25.271 39.6892 25.3342 39.7203C25.3815 39.7436 25.4367 39.7592 25.492 39.7747C25.563 39.798 25.6261 39.8213 25.6971 39.8446C25.7444 39.8602 25.7918 39.8679 25.8391 39.8835C25.9101 39.899 25.989 39.9223 26.0601 39.9301C26.1074 39.9378 26.1547 39.9456 26.2021 39.9534C26.2731 39.9611 26.3441 39.9767 26.423 39.9845C26.4782 39.9845 26.5335 39.9845 26.5808 39.9922C26.6439 39.9922 26.7149 39.9922 26.7781 39.9922C26.8412 39.9922 26.9043 39.9922 26.9674 39.9922C27.0227 39.9922 27.0779 39.9922 27.141 39.9767C27.212 39.9767 27.2751 39.9611 27.3462 39.9534C27.3935 39.9534 27.4487 39.9378 27.4961 39.9301C27.5671 39.9145 27.6381 39.899 27.7091 39.8835C27.7565 39.8679 27.8117 39.8602 27.8511 39.8446C27.9221 39.8291 27.9853 39.8058 28.0563 39.7825C28.1115 39.7669 28.1589 39.7436 28.2141 39.7281C28.2772 39.7048 28.3324 39.6815 28.3877 39.6504C28.4508 39.6193 28.506 39.596 28.5691 39.565C28.6165 39.5416 28.6638 39.5106 28.7112 39.4873C28.7743 39.4484 28.8453 39.4096 28.9084 39.363C28.9321 39.3474 28.9558 39.3397 28.9715 39.3241C28.9952 39.3086 29.011 39.2931 29.0268 39.2853C29.0899 39.2387 29.1451 39.1921 29.2083 39.1455C29.2556 39.1066 29.295 39.0755 29.3345 39.0367C29.3818 38.9979 29.4292 38.9512 29.4765 38.9046C29.5239 38.858 29.5712 38.8114 29.6185 38.757C29.658 38.7182 29.6896 38.6793 29.7211 38.6405C29.7685 38.5784 29.8158 38.5162 29.8631 38.4541C29.8789 38.4385 29.8947 38.423 29.9026 38.3997L42.9609 20.0427L38.2899 13.4628L26.7623 29.6446V29.6368Z" fill="white"/>
</mask>
<g mask="url(#mask5_3_9)">
<path d="M42.9688 13.455H18.2487V40H42.9688V13.455Z" fill="url(#paint5_linear_3_9)"/>
</g>
<path d="M152.873 20.9594H57.8748V21.4877H152.873V20.9594Z" fill="#5A5A5A"/>
<path d="M57.9852 17.8831V9.09689H58.8689V17.0441H63.1375V17.8908H57.9852V17.8831Z" fill="#5A5A5A"/>
<path d="M67.9585 17.9918C65.2758 17.9918 64.4079 15.7545 64.4079 13.4861C64.4079 11.2177 65.2758 8.98038 67.9585 8.98038C70.6412 8.98038 71.517 11.2177 71.517 13.4861C71.517 15.7545 70.657 17.9918 67.9585 17.9918ZM67.9585 9.85045C65.7966 9.85045 65.2995 11.7382 65.2995 13.4861C65.2995 15.234 65.7966 17.1218 67.9585 17.1218C70.1204 17.1218 70.6333 15.234 70.6333 13.4861C70.6333 11.7382 70.1204 9.85045 67.9585 9.85045Z" fill="#5A5A5A"/>
<path d="M77.0086 17.9918C75.3753 17.9918 73.8525 17.3004 73.529 15.5758L74.3969 15.3583C74.6494 16.6712 75.754 17.1606 76.9928 17.1606C78.0895 17.1606 79.2573 16.5935 79.2573 15.3739C79.2573 12.7559 73.8762 14.5038 73.8762 11.2566C73.8762 9.67955 75.3359 9.00369 76.7403 9.00369C78.1448 9.00369 79.2494 9.4698 79.8885 10.8293L79.0995 11.1944C78.6024 10.1379 77.8686 9.87376 76.7482 9.87376C75.8566 9.87376 74.7678 10.2 74.7678 11.2566C74.7678 13.525 80.1647 11.9713 80.1647 15.3739C80.1647 17.0752 78.5945 17.9918 77.0165 17.9918H77.0086Z" fill="#5A5A5A"/>
<path d="M89.9327 13.9988H87.5262V17.8753H86.6425V9.08914H89.9249C91.5897 9.08914 92.8916 9.70285 92.8916 11.544C92.8916 13.3851 91.5897 13.9988 89.9249 13.9988H89.9327ZM89.9327 9.95921H87.5262V13.1831H89.9327C91.0926 13.1831 92.0158 12.8802 92.0158 11.544C92.0158 10.2078 91.0926 9.95921 89.9327 9.95921Z" fill="#5A5A5A"/>
<path d="M94.8641 17.8831V9.09689H100.537V9.96697H95.7399V12.8724H99.9297V13.7191H95.7399V17.0208H100.537V17.8908H94.8641V17.8831Z" fill="#5A5A5A"/>
<path d="M103.023 17.8831V9.09689H103.906V17.0441H108.175V17.8908H103.023V17.8831Z" fill="#5A5A5A"/>
<path d="M116.546 17.8831L115.521 15.2806H111.607L110.574 17.8831H109.627L113.083 9.09689H114.053L117.509 17.8831H116.546ZM113.564 10.2777L111.931 14.4339H115.205L113.572 10.2777H113.564Z" fill="#5A5A5A"/>
<path d="M125.967 17.8831V11.3886L123.577 17.8831H122.748L120.373 11.3886V17.8831H119.482V9.09689H120.373L123.174 16.8032L125.96 9.09689H126.851V17.8831H125.967Z" fill="#5A5A5A"/>
<path d="M132.927 17.8831H129.644V9.09689H132.698C134.323 9.09689 135.562 9.70284 135.562 11.4663C135.562 12.1732 135.294 12.9112 134.678 13.3152C135.546 13.6415 135.917 14.5581 135.917 15.4282C135.917 17.2538 134.599 17.8831 132.927 17.8831ZM132.698 9.96697H130.528V12.9656H132.856C133.968 12.9656 134.686 12.7015 134.686 11.4663C134.686 10.2311 133.755 9.96697 132.706 9.96697H132.698ZM132.927 13.6648H130.52V17.013H132.927C134.079 17.013 135.033 16.7489 135.033 15.4282C135.033 14.1076 134.11 13.6648 132.927 13.6648Z" fill="#5A5A5A"/>
<path d="M143.618 17.8831L141.685 14.6203C141.416 14.1697 141.164 13.9289 140.612 13.9289H139.318V17.8831H138.434V9.09689H141.487C143.113 9.09689 144.391 9.76498 144.391 11.5129C144.391 12.7481 143.523 13.7891 142.182 13.9211C142.348 14.061 142.474 14.2396 142.576 14.4261L144.644 17.8908H143.61L143.618 17.8831ZM141.495 9.96697H139.326V13.152H141.535C142.663 13.152 143.507 12.7636 143.507 11.5129C143.507 10.2622 142.6 9.96697 141.503 9.96697H141.495Z" fill="#5A5A5A"/>
<path d="M146.876 17.8831V9.09689H152.55V9.96697H147.752V12.8724H151.942V13.7191H147.752V17.0208H152.55V17.8908H146.876V17.8831Z" fill="#5A5A5A"/>
<path d="M157.852 17.9918C156.219 17.9918 154.696 17.3004 154.372 15.5758L155.24 15.3583C155.493 16.6712 156.597 17.1606 157.836 17.1606C158.933 17.1606 160.101 16.5935 160.101 15.3739C160.101 12.7559 154.719 14.5038 154.719 11.2566C154.719 9.67955 156.179 9.00369 157.584 9.00369C158.988 9.00369 160.093 9.4698 160.732 10.8293L159.943 11.1944C159.446 10.1379 158.712 9.87376 157.591 9.87376C156.7 9.87376 155.611 10.2 155.611 11.2566C155.611 13.525 161.008 11.9713 161.008 15.3739C161.008 17.0752 159.438 17.9918 157.86 17.9918H157.852Z" fill="#5A5A5A"/>
<path d="M62.3959 29.8155H61.8199L61.2124 28.254H58.869L58.2535 29.8155H57.6854L59.7448 24.564H60.3286L62.3959 29.8155ZM61.023 27.7491L60.0446 25.2632L59.0662 27.7491H61.023Z" fill="#5A5A5A"/>
<path d="M67.2562 29.8155H66.7276L64.1081 25.4884V29.8155H63.5794V24.5562H64.1081L66.7276 28.8833V24.5562H67.2562V29.8155Z" fill="#5A5A5A"/>
<path d="M72.3691 25.0689H70.7122V29.8155H70.1756V25.0689H68.5187V24.5562H72.3691V25.0689Z" fill="#5A5A5A"/>
<path d="M77.4268 27.1897C77.4268 27.9588 77.2769 28.5725 76.9691 29.0464C76.6062 29.6058 76.046 29.8932 75.3043 29.8932C74.5626 29.8932 74.0024 29.6135 73.6395 29.0464C73.3317 28.5803 73.1818 27.9666 73.1818 27.1897C73.1818 26.4129 73.3317 25.807 73.6395 25.3408C74.0024 24.7815 74.5626 24.4941 75.3043 24.4941C76.046 24.4941 76.6062 24.7737 76.9691 25.3408C77.2769 25.807 77.4268 26.4284 77.4268 27.1897ZM76.8981 27.1897C76.8981 25.737 76.3616 25.0146 75.3043 25.0146C74.247 25.0146 73.7105 25.737 73.7105 27.1897C73.7105 28.6425 74.2391 29.3649 75.3043 29.3649C76.3695 29.3649 76.8981 28.6425 76.8981 27.1897Z" fill="#5A5A5A"/>
<path d="M82.0425 25.0767H79.2573V26.8324H81.7585V27.3373H79.2573V29.8155H78.7286V24.5562H82.0425V25.0767Z" fill="#5A5A5A"/>
<path d="M87.1396 29.8155H86.5636L85.9561 28.254H83.6127L82.9894 29.8155H82.4213L84.4885 24.564H85.0724L87.1396 29.8155ZM85.7667 27.7491L84.7883 25.2632L83.8099 27.7491H85.7667Z" fill="#5A5A5A"/>
<path d="M91.8738 29.8155H91.3451V29.2018C91.0847 29.6523 90.6429 29.8854 90.0274 29.8854C89.2937 29.8854 88.7413 29.6057 88.3863 29.0386C88.0786 28.5725 87.9286 27.951 87.9286 27.182C87.9286 26.4129 88.0786 25.7914 88.3942 25.3253C88.765 24.766 89.3173 24.4863 90.0669 24.4863C90.4298 24.4863 90.7455 24.564 91.0137 24.7194C91.2347 24.8514 91.4792 25.0689 91.7475 25.3719L91.3451 25.6982C91.1321 25.4496 90.9427 25.2787 90.7849 25.1855C90.5877 25.0612 90.3431 24.999 90.0669 24.999C88.9938 24.999 88.4573 25.7215 88.4573 27.1742C88.4573 27.7801 88.5599 28.2696 88.7729 28.6424C89.0412 29.1163 89.4594 29.3494 90.0353 29.3494C90.9112 29.3494 91.353 28.7357 91.353 27.516H90.0038V27.0266H91.8816V29.8077L91.8738 29.8155Z" fill="#5A5A5A"/>
<path d="M97.6967 29.8155H97.1208L96.5132 28.254H94.1698L93.5465 29.8155H92.9784L95.0456 24.564H95.6295L97.6967 29.8155ZM96.3239 27.7491L95.3455 25.2632L94.3671 27.7491H96.3239Z" fill="#5A5A5A"/>
<path d="M102.612 28.3162C102.612 28.7978 102.415 29.1862 102.021 29.4814C101.666 29.7456 101.232 29.8776 100.727 29.8776C100.198 29.8776 99.7482 29.7611 99.3852 29.5358C98.9828 29.2872 98.7382 28.9143 98.6436 28.4327L99.1643 28.3084C99.2984 29.0309 99.8192 29.3804 100.719 29.3804C101.082 29.3804 101.389 29.295 101.642 29.1163C101.926 28.9221 102.076 28.6502 102.076 28.3084C102.076 27.8811 101.8 27.5782 101.239 27.4072C100.727 27.2752 100.206 27.1353 99.6851 27.0033C99.1249 26.7858 98.8566 26.3973 98.8566 25.8535C98.8566 25.4185 99.0381 25.0767 99.401 24.8281C99.7166 24.6106 100.103 24.5018 100.569 24.5018C101.034 24.5018 101.405 24.5795 101.697 24.7427C102.013 24.9213 102.265 25.201 102.447 25.5972L101.973 25.8147C101.831 25.5117 101.642 25.302 101.405 25.1855C101.2 25.0767 100.924 25.0301 100.561 25.0301C100.245 25.0301 99.9849 25.0845 99.7719 25.201C99.5036 25.3486 99.3773 25.5661 99.3773 25.8535C99.3773 26.2187 99.6614 26.4828 100.222 26.6459C100.734 26.7935 101.255 26.9334 101.768 27.0732C102.328 27.3218 102.612 27.7413 102.612 28.3162Z" fill="#5A5A5A"/>
<path d="M107.268 25.0689H105.611V29.8155H105.074V25.0689H103.409V24.5562H107.268V25.0689Z" fill="#5A5A5A"/>
<path d="M112.128 29.8155H111.552L110.937 28.254H108.593L107.978 29.8155H107.41L109.477 24.564H110.061L112.128 29.8155ZM110.755 27.7491L109.777 25.2632L108.798 27.7491H110.755Z" fill="#5A5A5A"/>
<path d="M120.176 29.8155H119.647V25.9312L118.219 29.8155H117.722L116.302 25.9312V29.8155H115.765V24.5562H116.302L117.975 29.1629L119.639 24.5562H120.176V29.8155Z" fill="#5A5A5A"/>
<path d="M122.44 24.5562H121.896V29.8077H122.44V24.5562Z" fill="#5A5A5A"/>
<path d="M127.83 29.8155H127.301L124.689 25.4884V29.8155H124.161V24.5562H124.689L127.301 28.8833V24.5562H127.83V29.8155Z" fill="#5A5A5A"/>
<path d="M132.911 29.8155H129.518V24.5562H132.911V25.0767H130.039V26.8168H132.548V27.3218H130.039V29.295H132.911V29.8155Z" fill="#5A5A5A"/>
<path d="M138.118 29.8155H137.503L136.343 27.8656C136.177 27.5859 135.964 27.4539 135.696 27.4539H134.923V29.8155H134.394V24.564H136.225C136.745 24.564 137.156 24.6728 137.456 24.898C137.795 25.1466 137.961 25.5195 137.961 26.0089C137.961 26.3896 137.842 26.7081 137.598 26.9722C137.353 27.2519 137.029 27.415 136.635 27.4461C136.722 27.5238 136.801 27.6248 136.872 27.7491L138.11 29.8155H138.118ZM137.432 26.0089C137.432 25.3952 137.03 25.0845 136.233 25.0845H134.931V26.9878H136.256C137.037 26.9878 137.432 26.6615 137.432 26.0089Z" fill="#5A5A5A"/>
<path d="M143.673 29.8155H143.097L142.49 28.254H140.146L139.523 29.8155H138.955L141.022 24.564H141.606L143.673 29.8155ZM142.292 27.7491L141.314 25.2632L140.336 27.7491H142.292Z" fill="#5A5A5A"/>
<path d="M147.934 29.8155H144.857V24.5562H145.385V29.3105H147.934V29.8155Z" fill="#5A5A5A"/>
<path d="M152.881 28.3162C152.881 28.7978 152.684 29.1862 152.289 29.4814C151.934 29.7456 151.5 29.8776 150.995 29.8776C150.467 29.8776 150.017 29.7611 149.654 29.5358C149.251 29.2872 149.007 28.9143 148.912 28.4327L149.433 28.3084C149.575 29.0309 150.088 29.3804 150.987 29.3804C151.35 29.3804 151.658 29.295 151.91 29.1163C152.195 28.9221 152.337 28.6502 152.337 28.3084C152.337 27.8811 152.06 27.5782 151.508 27.4072C150.995 27.2752 150.474 27.1353 149.954 27.0033C149.401 26.7858 149.117 26.3973 149.117 25.8535C149.117 25.4185 149.299 25.0767 149.662 24.8281C149.969 24.6106 150.364 24.5018 150.83 24.5018C151.295 24.5018 151.666 24.5795 151.958 24.7427C152.273 24.9213 152.526 25.201 152.707 25.5972L152.234 25.8147C152.092 25.5117 151.903 25.302 151.666 25.1855C151.461 25.0767 151.185 25.0301 150.83 25.0301C150.514 25.0301 150.254 25.0845 150.04 25.201C149.78 25.3486 149.646 25.5661 149.646 25.8535C149.646 26.2187 149.93 26.4828 150.49 26.6459C151.003 26.7935 151.524 26.9334 152.037 27.0732C152.597 27.3218 152.881 27.7413 152.881 28.3162Z" fill="#5A5A5A"/>
</g>
<defs>
<linearGradient id="paint0_linear_3_9" x1="15.3957" y1="11.8766" x2="30.7579" y2="11.8766" gradientUnits="userSpaceOnUse">
<stop stop-color="#EDAC00"/>
<stop offset="0.12" stop-color="#E99704"/>
<stop offset="0.54" stop-color="#DE5513"/>
<stop offset="0.84" stop-color="#D72B1C"/>
<stop offset="1" stop-color="#D51C20"/>
</linearGradient>
<linearGradient id="paint1_linear_3_9" x1="-0.0946024" y1="28.3479" x2="15.4412" y2="28.3479" gradientUnits="userSpaceOnUse">
<stop stop-color="#75C6C8"/>
<stop offset="0.48" stop-color="#3E9EAB"/>
<stop offset="1" stop-color="#00728A"/>
</linearGradient>
<linearGradient id="paint2_linear_3_9" x1="38.4257" y1="30.9931" x2="53.78" y2="30.9931" gradientUnits="userSpaceOnUse">
<stop stop-color="#75C6C8"/>
<stop offset="1" stop-color="#00728A"/>
</linearGradient>
<linearGradient id="paint3_linear_3_9" x1="18.2488" y1="9.24453" x2="38.2899" y2="9.24453" gradientUnits="userSpaceOnUse">
<stop stop-color="#D51C20"/>
<stop offset="0.14" stop-color="#D6271D"/>
<stop offset="0.38" stop-color="#DB4516"/>
<stop offset="0.69" stop-color="#E4760B"/>
<stop offset="1" stop-color="#EDAC00"/>
</linearGradient>
<linearGradient id="paint4_linear_3_9" x1="6.34312" y1="21.9763" x2="26.6131" y2="21.9763" gradientUnits="userSpaceOnUse">
<stop stop-color="#75C6C8"/>
<stop offset="1" stop-color="#00728A"/>
</linearGradient>
<linearGradient id="paint5_linear_3_9" x1="18.2623" y1="28.4894" x2="42.9824" y2="28.4894" gradientUnits="userSpaceOnUse">
<stop stop-color="#00728A"/>
<stop offset="1" stop-color="#75C6C8"/>
</linearGradient>
<clipPath id="clip0_3_9">
<rect width="161" height="40" fill="white"/>
</clipPath>
</defs>
</svg>
